HIERARCHY
ROOT Hips
{
	OFFSET 0.000000 0.000000 0.000000 
	CHANNELS 6 Xposition Yposition Zposition Zrotation Yrotation Xrotation
	JOINT LeftUpLeg
	{
		OFFSET 1.363060 -1.794630 0.839290 
		CHANNELS 3 Zrotation Yrotation Xrotation
		JOINT LeftLeg
		{
			OFFSET 2.448110 -6.726130 0.000000 
			CHANNELS 3 Zrotation Yrotation Xrotation
			JOINT LeftFoot
			{
				OFFSET 2.562200 -7.039590 0.000000 
				CHANNELS 3 Zrotation Yrotation Xrotation
				JOINT LeftToeBase
				{
					OFFSET 0.157640 -0.433110 2.322550 
					CHANNELS 3 Zrotation Yrotation Xrotation
					End Site
					{
						OFFSET 0.000000 0.000000 0.000000 
					}
				}
			}
		}
	}
	JOINT RightUpLeg
	{
		OFFSET -1.305520 -1.794630 0.839290 
		CHANNELS 3 Zrotation Yrotation Xrotation
		JOINT RightLeg
		{
			OFFSET -2.542530 -6.985550 0.000000 
			CHANNELS 3 Zrotation Yrotation Xrotation
			JOINT RightFoot
			{
				OFFSET -2.568260 -7.056230 0.000000 
				CHANNELS 3 Zrotation Yrotation Xrotation
				JOINT RightToeBase
				{
					OFFSET -0.164730 -0.452590 2.363150 
					CHANNELS 3 Zrotation Yrotation Xrotation
					End Site
					{
						OFFSET 0.000000 0.000000 0.000000 
					}
				}
			}
		}
	}
	JOINT Spine
	{
		OFFSET 0.028270 2.035590 -0.193380 
		CHANNELS 3 Zrotation Yrotation Xrotation
		JOINT Spine1
		{
			OFFSET 0.056720 2.048850 -0.042750 
			CHANNELS 3 Zrotation Yrotation Xrotation
			JOINT Neck1
			{
				OFFSET -0.054170 1.746240 0.172020 
				CHANNELS 3 Zrotation Yrotation Xrotation
				JOINT Head
				{
					OFFSET 0.104070 1.761360 -0.123970 
					CHANNELS 3 Zrotation Yrotation Xrotation
					End Site
					{
						OFFSET 0.000000 0.000000 0.000000 
					}
				}
			}
			JOINT LeftArm
			{
				OFFSET 3.362410 1.200890 -0.311210 
				CHANNELS 3 Zrotation Yrotation Xrotation
				JOINT LeftForeArm
				{
					OFFSET 4.983000 -0.000000 -0.000000 
					CHANNELS 3 Zrotation Yrotation Xrotation
					JOINT LeftHand
					{
						OFFSET 3.483560 -0.000000 -0.000000 
						CHANNELS 3 Zrotation Yrotation Xrotation
						JOINT LeftHandIndex1
						{
							OFFSET 0.715260 -0.000000 -0.000000 
							CHANNELS 3 Zrotation Yrotation Xrotation
							End Site
							{
								OFFSET 0.000000 0.000000 0.000000 
							}
						}
					}
				}
			}
			JOINT RightArm
			{
				OFFSET -3.136600 1.374050 -0.404650 
				CHANNELS 3 Zrotation Yrotation Xrotation
				JOINT RightForeArm
				{
					OFFSET -5.241900 -0.000000 -0.000000 
					CHANNELS 3 Zrotation Yrotation Xrotation
					JOINT RightHand
					{
						OFFSET -3.444170 -0.000000 -0.000000 
						CHANNELS 3 Zrotation Yrotation Xrotation
						JOINT RightHandIndex1
						{
							OFFSET -0.622530 -0.000000 -0.000000 
							CHANNELS 3 Zrotation Yrotation Xrotation
							End Site
							{
								OFFSET 0.000000 0.000000 0.000000 
							}
						}
					}
				}
			}
		}
	}
}
MOTION
Frames: 16
Frame Time: 0.041667
11.244434 18.029040 4.721894 -2.935301 -3.333974 28.984325 -21.611903 -13.798754 -25.142327 -1.387129 3.386655 5.452971 1.020825 1.939253 -14.937487 1.830200 -8.503000 -24.252700 21.449826 27.463995 -36.201792 -0.514496 -13.570941 29.813442 -1.361920 0.291353 -25.888195 -3.163200 10.954600 -32.127000 1.440223 -3.571853 -3.352730 -0.036564 -2.657673 15.589817 10.223047 -2.516476 36.893786 2.583900 0.313700 8.093800 -91.949843 -8.517534 29.259997 28.432553 -35.287171 -11.763349 -1.304727 -0.047542 -0.623445 -7.125000 0.000000 0.000000 85.393859 -15.679624 32.080896 -37.362433 46.893189 -19.091441 -0.232920 3.260439 -5.336629 7.125000 0.000000 0.000000 
11.219886 18.029477 4.725604 -2.894543 -3.242661 28.714689 -21.616691 -13.869773 -24.725685 -1.390536 3.313340 5.350347 1.038012 2.050505 -14.947761 1.965800 -8.794400 -25.154200 21.650682 27.435338 -35.954065 -0.375680 -13.285614 28.994412 -1.335822 -0.112968 -25.748796 -3.349200 11.240000 -33.093700 1.445788 -3.553207 -3.354895 -0.040198 -2.611739 15.518545 11.135551 -2.279955 36.281357 2.974300 0.408100 7.612000 -92.433475 -8.877360 29.453335 28.980694 -35.771257 -12.163544 -1.342881 -0.063775 -1.076072 -7.125000 0.000000 0.000000 85.367769 -15.571789 32.311920 -37.406959 46.906441 -19.116847 -0.225407 3.264712 -5.343782 7.125000 0.000000 0.000000 
11.194028 18.030459 4.733023 -2.873854 -3.101441 28.409928 -21.648643 -13.724010 -24.353004 -1.380845 3.258851 5.313281 1.016099 1.890137 -14.877625 2.044400 -8.958000 -25.663900 22.017010 27.231507 -35.657187 -0.323444 -13.152623 28.672492 -1.362485 -0.226272 -25.982244 -3.306900 11.176100 -32.876000 1.455619 -3.491121 -3.326470 0.018832 -2.536695 15.676608 13.808313 -2.646709 35.049971 3.946100 0.286600 7.135500 -92.866991 -9.373579 29.659744 29.499929 -36.246939 -12.561399 -1.362744 -0.079344 -1.634498 -7.125000 0.000000 0.000000 85.299303 -15.286437 32.557723 -37.390735 46.887530 -19.100296 -0.205841 3.268873 -5.316401 7.125000 0.000000 0.000000 
11.169152 18.030131 4.737496 -2.824892 -3.052870 28.090446 -21.701992 -13.619479 -24.036033 -1.373936 3.250967 5.369088 1.003153 1.787703 -14.856763 2.015500 -8.898300 -25.477600 22.330198 26.936687 -35.429477 -0.304857 -13.056084 28.481224 -1.386471 0.108514 -26.148467 -2.757700 10.292100 -29.928100 1.457523 -3.573979 -3.286653 -0.192754 -2.607811 15.817820 11.425483 -2.425246 36.335703 3.056600 0.369400 7.649900 -93.305190 -9.512280 29.686735 30.251685 -36.888437 -13.125838 -1.378545 -0.078601 -2.045376 -7.125000 0.000000 0.000000 85.313074 -14.778209 32.696141 -37.419316 46.913796 -19.121259 -0.208419 3.295389 -5.244706 7.125000 0.000000 0.000000 
11.143949 18.030131 4.741751 -2.733718 -2.902689 27.861944 -21.766462 -13.590518 -23.862284 -1.365359 3.295891 5.543522 0.987609 1.661511 -14.865834 2.089100 -9.049200 -25.949500 22.572527 26.582167 -35.295310 -0.294941 -12.981734 28.330392 -1.381216 0.446498 -26.078190 -2.342200 9.545300 -27.516300 1.455479 -3.525161 -3.282273 -0.159790 -2.516789 15.864796 13.508801 -2.527205 34.381619 3.719400 0.299100 6.544100 -93.667846 -9.785934 29.860974 30.861891 -37.418453 -13.593663 -1.420960 -0.094208 -2.681348 -7.125000 0.000000 0.000000 85.320990 -14.551774 32.919678 -37.602302 46.993945 -19.236421 -0.229592 3.290911 -5.125442 7.125000 0.000000 0.000000 
11.112419 18.029040 4.747424 -2.583074 -2.830675 27.717706 -21.888841 -13.432789 -23.878325 -1.348725 3.381142 5.783786 0.945942 1.366436 -14.817161 2.228200 -9.326000 -26.820600 22.685820 26.363764 -35.249487 -0.313337 -12.985456 28.380564 -1.352064 0.538074 -25.807451 -2.181000 9.233200 -26.527700 1.464581 -3.559950 -3.306526 -0.158265 -2.546963 15.856495 13.012132 -2.317694 34.982762 3.592900 0.401900 6.737200 -94.077744 -10.015975 30.141036 31.225415 -37.693629 -13.863604 -1.450765 -0.130561 -3.448950 -7.125000 0.000000 0.000000 85.184361 -14.246667 33.362267 -37.743324 47.065793 -19.337784 -0.220481 3.240761 -5.012877 7.125000 0.000000 0.000000 
11.079251 18.024349 4.753861 -2.416257 -2.833922 27.605958 -21.990758 -13.348256 -23.860151 -1.338863 3.435719 5.938451 0.922300 1.189105 -14.815357 2.278700 -9.423900 -27.130600 22.742103 26.184796 -35.275495 -0.362321 -13.061849 28.623092 -1.279642 0.389026 -25.152194 -2.559700 9.945600 -28.800800 1.476172 -3.578507 -3.343201 -0.124672 -2.591466 15.812450 12.402542 -2.572153 36.488575 3.476600 0.312600 7.540900 -94.685212 -10.049917 30.316952 31.647148 -38.011508 -14.189496 -1.462486 -0.166223 -3.955048 -7.125000 0.000000 0.000000 85.101818 -13.808475 33.632461 -37.759210 47.074074 -19.355073 -0.187566 3.223236 -4.887842 7.125000 0.000000 0.000000 
11.050448 18.021730 4.760299 -2.231707 -2.770754 27.361953 -22.154484 -13.321378 -23.632526 -1.331091 3.456115 6.049884 0.909098 1.055243 -14.874890 2.343600 -9.547800 -27.524500 22.895011 25.799388 -35.040384 -0.426809 -13.055693 28.752546 -1.241187 1.477416 -24.763142 -1.713300 8.241500 -23.450000 1.487628 -3.514002 -3.372883 -0.001974 -2.552164 15.648023 12.679283 -2.787827 36.326990 3.585000 0.182900 7.367400 -95.365575 -10.033401 30.535979 32.142114 -38.390779 -14.584583 -1.471136 -0.199483 -4.433511 -7.125000 0.000000 0.000000 85.052911 -13.395030 33.748081 -37.648017 46.988137 -19.267435 -0.168648 3.231194 -4.888562 7.125000 0.000000 0.000000 
11.018262 18.023367 4.769572 -2.017326 -2.795151 26.949283 -22.447395 -13.068831 -23.245708 -1.316233 3.462157 6.173540 0.880213 0.804816 -14.899314 2.447100 -9.741000 -28.142100 23.155214 25.455817 -34.440018 -0.453436 -12.968043 28.693854 -1.146294 1.330383 -23.836114 -2.244700 9.358200 -26.922200 1.477354 -3.446734 -3.352867 0.059098 -2.550370 15.620447 11.931697 -2.635920 36.612910 3.299100 0.254700 7.516200 -95.854246 -10.082597 30.800966 32.582093 -38.718568 -14.936136 -1.475172 -0.225061 -5.032506 -7.125000 0.000000 0.000000 85.111227 -12.818699 33.822744 -37.403761 46.832298 -19.079127 -0.159534 3.233318 -4.890502 7.125000 0.000000 0.000000 
10.982913 18.022276 4.782338 -1.904273 -2.796469 26.656343 -22.571737 -12.796158 -22.971921 -1.301264 3.469288 6.282995 0.847682 0.554803 -14.884004 2.472200 -9.787200 -28.290400 23.490092 25.266909 -33.823074 -0.456379 -12.838824 28.499830 -1.063507 1.329630 -23.012374 -2.420400 9.691600 -27.983800 1.459015 -3.364775 -3.309199 0.037117 -2.522889 15.847583 12.321939 -2.675341 36.349367 3.410200 0.276100 7.561700 -96.260794 -10.213332 30.934780 32.997155 -39.043829 -15.275580 -1.479163 -0.242404 -5.465895 -7.125000 0.000000 0.000000 85.327078 -12.087093 33.787089 -37.220832 46.719247 -18.937083 -0.140429 3.233218 -4.621195 7.125000 0.000000 0.000000 
10.949090 18.015730 4.794666 -1.846191 -2.588552 26.536777 -22.565421 -12.648183 -22.981653 -1.280614 3.550775 6.521131 0.795512 0.202939 -14.829934 2.506700 -9.850000 -28.492400 23.873864 24.966527 -33.338546 -0.447925 -12.686464 28.216573 -0.962155 1.453462 -22.013607 -2.392600 9.640000 -27.818800 1.454838 -3.325356 -3.297984 -0.086743 -2.480663 16.018562 12.632170 -2.855187 36.199082 3.499400 0.196600 7.465000 -96.761270 -10.193004 31.031918 33.453382 -39.394136 -15.654518 -1.480228 -0.268060 -5.570074 -7.125000 0.000000 0.000000 85.580324 -11.391459 33.692452 -37.183861 46.686643 -18.902043 -0.127325 3.213332 -4.274720 7.125000 0.000000 0.000000 
10.915268 18.007220 4.807322 -1.690024 -2.433713 26.390347 -22.678172 -12.530946 -23.020878 -1.259017 3.669320 6.839652 0.745034 -0.159828 -14.846732 2.573900 -9.971100 -28.883300 24.164969 24.549507 -32.859156 -0.455279 -12.535045 27.965060 -0.840475 1.645443 -20.761337 -2.327800 9.517900 -27.429400 1.445230 -3.315843 -3.311822 -0.256232 -2.495890 16.040431 10.788518 -2.534742 37.051522 2.805000 0.336500 7.854700 -97.246891 -9.910186 31.242562 33.853461 -39.675617 -15.989635 -1.475905 -0.280732 -5.604995 -7.125000 0.000000 0.000000 85.754540 -10.700703 33.730994 -37.032184 46.592216 -18.783675 -0.125342 3.196200 -4.182129 7.125000 0.000000 0.000000 
10.880246 17.999146 4.823142 -1.529381 -2.405888 26.241007 -22.804866 -12.398143 -22.927972 -1.245184 3.737763 7.068187 0.721339 -0.381573 -14.957226 2.588800 -9.997600 -28.969000 24.403662 24.291198 -32.317251 -0.446865 -12.346617 27.600761 -0.734864 2.012248 -19.678503 -1.939000 8.737800 -24.978600 1.421505 -3.124989 -3.339538 -0.164702 -2.365631 16.006545 12.827726 -2.891317 36.794407 3.645400 0.189100 7.612800 -97.683035 -9.706136 31.517415 34.081648 -39.855769 -16.209045 -1.464139 -0.303292 -5.641817 -7.125000 0.000000 0.000000 85.832965 -10.172133 33.970747 -36.817986 46.445282 -18.621247 -0.081962 3.191543 -4.463354 7.125000 0.000000 0.000000 
10.842278 17.991400 4.840599 -1.411327 -2.443069 26.145734 -22.848871 -12.295051 -22.812276 -1.239459 3.755997 7.155376 0.712871 -0.486075 -15.048585 2.584800 -9.990500 -28.946100 24.673013 24.081884 -31.697329 -0.394751 -12.035397 26.900013 -0.643814 2.687811 -18.854241 -0.980200 6.302200 -17.663700 1.404000 -3.050524 -3.355799 -0.271614 -2.348860 16.075926 11.564506 -2.671633 37.316243 3.147300 0.288000 7.808300 -98.015468 -9.548066 31.677878 34.115206 -39.861725 -16.248605 -1.452059 -0.326594 -5.667556 -7.125000 0.000000 0.000000 85.944897 -9.506055 34.236032 -36.695190 46.375019 -18.539199 -0.026480 3.202490 -4.682257 7.125000 0.000000 0.000000 
10.801255 17.986272 4.853800 -1.238499 -2.405387 26.054859 -22.911032 -12.269281 -22.730628 -1.235620 3.775358 7.231581 0.709897 -0.535866 -15.104873 2.607200 -10.030300 -29.075100 24.783482 23.876612 -30.991049 -0.329594 -11.663197 26.048383 -0.564612 3.471021 -18.232066 -0.773500 5.615500 -15.672700 1.394351 -2.948470 -3.352097 -0.243243 -2.307603 16.242024 11.935834 -2.681559 36.961057 3.240100 0.314500 7.726100 -98.383702 -9.440347 31.866759 34.088929 -39.836570 -16.241514 -1.460309 -0.333231 -5.613566 -7.125000 0.000000 0.000000 86.206492 -8.787346 34.193315 -36.655387 46.343850 -18.512591 0.022872 3.212953 -4.391842 7.125000 0.000000 0.000000 
10.757832 17.982235 4.863729 -1.005907 -2.276983 25.949359 -23.046688 -12.154099 -22.779692 -1.217186 3.866992 7.482188 0.670151 -0.821709 -15.122199 2.699800 -10.192400 -29.602200 24.808716 23.697546 -30.169431 -0.242307 -11.259060 25.125408 -0.561061 3.916948 -18.326283 -0.624400 5.056700 -14.070300 1.386856 -2.852280 -3.349147 -0.177742 -2.271676 16.349917 12.024397 -2.598229 36.945297 3.278100 0.362200 7.688800 -98.792937 -9.112922 32.088319 34.200531 -39.915836 -16.357536 -1.455582 -0.355839 -5.424227 -7.125000 0.000000 0.000000 86.491677 -8.045594 34.116633 -36.600129 46.295016 -18.469900 0.058292 3.206577 -4.183203 7.125000 0.000000 0.000000 
